<svg xmlns="http://www.w3.org/2000/svg" xmlns:xlink="http://www.w3.org/1999/xlink" width="24" height="24" viewBox="0 0 24 24">
    <path fill="#9D58FF" d="M16 14.8v-1.6c0-.22-.18-.4-.4-.4h-4.8c-1.546.002-2.798 1.254-2.8 2.8v.8c.002.347.154.676.416.904-.256.138-.415.405-.416.696v.4c.001.441.359.799.8.8h.432c.11.766.534 1.452 1.168 1.896V22.2l-1.44 1.08c-.138.103-.194.283-.14.446.055.164.208.274.38.274h5.6c.172 0 .325-.11.38-.274.054-.163-.002-.343-.14-.446L13.6 22.2v-1.104c.634-.444 1.057-1.13 1.168-1.896h.432c.441-.001.799-.359.8-.8V18c-.001-.441-.359-.799-.8-.8h-.4v-.112c.75-.52 1.198-1.375 1.2-2.288zm-6.8 3.6h-.4V18h.4v.4zm1.2 4.8l.64-.48c.1-.076.16-.194.16-.32v-.916c.522.155 1.078.155 1.6 0v.916c0 .126.06.244.16.32l.64.48h-3.2zm3.6-4.4c0 1.105-.895 2-2 2s-2-.895-2-2v-2.152l1.248-.624 2.752.688V18.8zm1.2-.8v.4h-.4V18h.4zm-3.6-.8v.8h-.8v-.8h.8zm1.6 0v.8h-.8v-.8h.8zm2-3.6v1.2c-.001.49-.183.964-.512 1.328-.053-.055-.119-.095-.192-.116l-3.2-.8c-.093-.024-.191-.012-.276.032l-1.6.8c-.135.067-.22.205-.22.356v.4c-.22 0-.4-.18-.4-.4v-.8c0-1.105.895-2 2-2h4.4zm8.4-8c.22 0 .4.18.4.4v1.6c-.002.913-.45 1.767-1.2 2.288V10h.4c.441.001.799.359.8.8v.4c-.001.441-.359.799-.8.8h-.432c-.11.766-.534 1.452-1.168 1.896V15l1.44 1.08c.138.103.194.283.14.446-.055.164-.208.274-.38.274h-5.6c-.172 0-.325-.11-.38-.274-.054-.163.002-.343.14-.446L18.4 15v-1.104c-.634-.444-1.057-1.13-1.168-1.896H16.8c-.441-.001-.799-.359-.8-.8v-.4c0-.29.16-.558.416-.696-.262-.228-.414-.557-.416-.904v-.8c.002-1.546 1.254-2.798 2.8-2.8zm-16 0c.22 0 .4.18.4.4v1.6c-.002.913-.45 1.767-1.2 2.288V10h.4c.441.001.799.359.8.8v.4c-.001.441-.359.799-.8.8h-.432c-.11.766-.534 1.452-1.168 1.896V15l1.44 1.08c.138.103.194.283.14.446-.055.164-.208.274-.38.274H1.2c-.172 0-.325-.11-.38-.274-.054-.163.002-.343.14-.446L2.4 15v-1.104c-.634-.444-1.057-1.13-1.168-1.896H.8c-.441-.001-.799-.359-.8-.8v-.4c0-.29.16-.558.416-.696C.154 9.876.002 9.547 0 9.2v-.8c.002-1.546 1.254-2.798 2.8-2.8zm13.2 8.684c-.522.155-1.078.155-1.6 0v.916c0 .126-.06.244-.16.32l-.64.48h3.2l-.64-.48c-.1-.076-.16-.194-.16-.32zm-16 0c-.522.155-1.078.155-1.6 0v.916c0 .126-.06.244-.16.32L2.4 16h3.2l-.64-.48c-.1-.076-.16-.194-.16-.32zm14.448-5.46L18 9.448V11.6c0 1.105.895 2 2 2s2-.895 2-2V9.512l-2.752-.688zm-16 0L2 9.448V11.6c0 1.105.895 2 2 2s2-.895 2-2V9.512l-2.752-.688zM17.2 10.8h-.4v.4h.4v-.4zm6 0h-.4v.4h.4v-.4zm-22 0H.8v.4h.4v-.4zm6 0h-.4v.4h.4v-.4zm6.4-.4v.8h-3.2v-.8h3.2zm7.6-.4v.8h-.8V10h.8zM3.6 10v.8h-.8V10h.8zm1.6 0v.8h-.8V10h.8zm14.4 0v.8h-.8V10h.8zm3.6-3.6h-4.4c-1.105 0-2 .895-2 2v.8c0 .22.18.4.4.4v-.4c0-.15.085-.29.22-.356l1.6-.8c.085-.044.183-.055.276-.032l3.2.8c.073.02.14.061.192.116.329-.364.511-.837.512-1.328V6.4zm-16 0H2.8c-1.105 0-2 .895-2 2v.8c0 .22.18.4.4.4v-.4c0-.15.085-.29.22-.356l1.6-.8c.085-.044.183-.055.276-.032l3.2.8c.049.014.094.036.135.066l.056.048.117-.14c.255-.34.395-.757.396-1.186V6.4zm6.4 2.4v.8h-3.2v-.8h3.2zm0-1.6V8h-3.2v-.8h3.2zM11.74.096c.15-.128.37-.128.52 0l2.8 2.4c.127.109.173.285.115.443-.058.157-.208.261-.375.261h-1.2V6c0 .22-.18.4-.4.4h-2.4c-.22 0-.4-.18-.4-.4V3.2H9.2c-.167 0-.317-.104-.375-.261-.058-.158-.012-.334.115-.443zm.26.832L10.28 2.4h.52c.22 0 .4.18.4.4v2.8h1.6V2.8c0-.22.18-.4.4-.4h.52L12 .928zm8.14-.832c.15-.128.37-.128.52 0l2.8 2.4c.127.109.173.285.115.443-.058.157-.208.261-.375.261H22v1.2c0 .22-.18.4-.4.4h-2.4c-.22 0-.4-.18-.4-.4V3.2h-1.2c-.167 0-.317-.104-.375-.261-.058-.158-.012-.334.115-.443zm-16.8 0c.15-.128.37-.128.52 0l2.8 2.4c.127.109.173.285.115.443-.058.157-.208.261-.375.261H5.2v1.2c0 .22-.18.4-.4.4H2.4c-.22 0-.4-.18-.4-.4V3.2H.8c-.167 0-.317-.104-.375-.261-.058-.158-.012-.334.115-.443zM20.4.928L18.68 2.4h.52c.22 0 .4.18.4.4V4h1.6V2.8c0-.22.18-.4.4-.4h.52L20.4.928zm-16.8 0L1.88 2.4h.52c.22 0 .4.18.4.4V4h1.6V2.8c0-.22.18-.4.4-.4h.52L3.6.928z"/>
    <path fill="none" d="M0 0H24V24H0z"/>
</svg>
