<svg xmlns="http://www.w3.org/2000/svg" xmlns:xlink="http://www.w3.org/1999/xlink" width="24" height="24" viewBox="0 0 24 24">
    <path fill="#E158EE" d="M24 5.806C24 2.605 21.395 0 18.194 0c-3.202 0-5.807 2.605-5.807 5.806 0 2.465 1.547 4.571 3.719 5.412l-.782.782H12.21l-2.71 3.097H4.864l-4.76 5.156.569.526 4.53-4.908h4.652l2.71-3.097h3.08l1.3-1.3c.355.078.722.121 1.097.131l-1.943 1.943H12.58l-2.323 3.097H5.631L0 23.08V24h22.452V9.74C23.409 8.706 24 7.326 24 5.807zm-10.839 0c0-2.774 2.258-5.032 5.033-5.032 2.774 0 5.032 2.258 5.032 5.032 0 2.775-2.258 5.033-5.032 5.033-2.775 0-5.033-2.258-5.033-5.033zm6.194 5.69v11.73h-1.549V12.934l1.42-1.418c.042-.008.086-.011.129-.02zm-2.937 2.827l.614-.614v9.517h-1.548v-8.903h.934zM5.42 23.226H3.871v-3.394l1.548-1.77v5.164zm.775-5.807h1.548v5.807H6.194v-5.807zm2.322 0h1.549v5.807H8.516v-5.807zm2.323-.258l1.548-2.064v8.129H10.84V17.16zm2.322-2.838h1.549v8.903H13.16v-8.903zM3.097 20.717v2.509H.902l2.195-2.509zm18.58-10.276v12.785H20.13V11.274c.56-.2 1.082-.481 1.548-.833zM3.097 6.58v1.548h.774v4.645h-.774v1.549h-.774v-1.549h-.775V8.13h.775V6.581h.774zm3.097-1.162v1.549h.774v3.87h-.774v1.55h-.775v-1.55h-.774v-3.87h.774V5.419h.775zM3.097 8.903h-.774V12h.774V8.903zm3.097-1.161h-.775v2.323h.775V7.742zm12-6.194c2.347 0 4.258 1.91 4.258 4.258s-1.91 4.259-4.258 4.259-4.259-1.91-4.259-4.259c0-2.347 1.91-4.258 4.259-4.258zM9.29 3.484v1.548h.775V8.13H9.29v1.548h-.774V8.13h-.774V5.032h.774V3.484h.774zm8.904-1.161c-1.922 0-3.484 1.562-3.484 3.483 0 1.922 1.562 3.484 3.484 3.484 1.92 0 3.483-1.562 3.483-3.484 0-1.92-1.562-3.483-3.483-3.483zm.387.774v.774h1.16v1.161h-.773v-.387h-1.162c-.213 0-.387.174-.387.387 0 .214.174.387.387.387h.775c.64 0 1.16.521 1.16 1.162 0 .64-.52 1.16-1.16 1.16v.775h-.775v-.774h-1.16V6.58h.773v.387h1.162c.213 0 .387-.174.387-.387 0-.214-.174-.387-.387-.387h-.775c-.64 0-1.16-.521-1.16-1.162 0-.64.52-1.161 1.16-1.161v-.774h.775zm-9.29 2.71h-.775v1.548h.774V5.806z"/>
    <path fill="none" d="M0 0H24V24H0z"/>
</svg>
