<svg xmlns="http://www.w3.org/2000/svg" xmlns:xlink="http://www.w3.org/1999/xlink" width="24" height="24" viewBox="0 0 24 24">
    <path fill="#31BCDA" d="M13.477.853l7.438 4.294c.914.528 1.477 1.503 1.477 2.558v8.59c0 1.055-.563 2.03-1.477 2.558l-7.438 4.294c-.914.528-2.04.528-2.954 0l-7.438-4.294c-.914-.528-1.477-1.503-1.477-2.558v-8.59c0-1.055.563-2.03 1.477-2.558L10.523.853c.914-.528 2.04-.528 2.954 0zm-2.3.786l-.154.08-7.438 4.294c-.558.322-.919.897-.97 1.532l-.007.16v8.59c0 .644.317 1.243.841 1.606l.136.086 7.438 4.294c.554.32 1.226.347 1.8.08l.154-.08 7.438-4.294c.558-.322.919-.897.97-1.532l.007-.16v-8.59c0-.644-.317-1.243-.841-1.606l-.136-.086-7.438-4.294c-.554-.32-1.226-.347-1.8-.08zm2.094 6.844v8.974h-2.327v-7.139l2.327-1.835zm3.337-2.026v1.987H13.27v.004h-2.327v-.004H7.608V6.457h9z"/>
    <path fill="none" d="M0 0H24V24H0z"/>
</svg>
