<svg xmlns="http://www.w3.org/2000/svg" xmlns:xlink="http://www.w3.org/1999/xlink" width="24" height="24" viewBox="0 0 24 24">
    <path fill="#F5A623" fill-rule="nonzero" d="M11.27 3.121c.215-.161.51-.161.723 0l1.288.97.997.752 5.748 4.335c.16.142.239.301.239.48v10.219c.031.385-.104.578-.406.578H3.6c-.331 0-.6-.268-.6-.6V9.657c0-.188.088-.366.239-.479zm.362 1.23L4.2 9.956v9.3h5.25v-4.952c0-.331.268-.6.6-.6h3.165c.331 0 .6.269.6.6v4.951h5.25V9.956l-7.433-5.605zm.983 10.553H10.65v4.351h1.965v-4.35z"/>
    <path fill="none" d="M0 0H24V24H0z"/>
</svg>
