<svg xmlns="http://www.w3.org/2000/svg" xmlns:xlink="http://www.w3.org/1999/xlink" width="24" height="24" viewBox="0 0 24 24">
    <path fill="#FBE800" fill-rule="evenodd" d="M0 23.918h23.918V0H0v23.918zm1.401-1.401h4.205v-9.204H1.4v9.204zm5.606 0h4.251V7.007h-4.25v15.51zm5.653 0h4.251v-4.204H12.66v4.204zm0-5.606h4.251V1.401H12.66v15.51zM7.007 5.606h4.251V1.4h-4.25v4.205zm11.306 16.91h4.204v-9.509h-4.204v9.51zm0-10.91h4.204V1.4h-4.204v10.205zM1.4 11.91h4.205V1.401H1.4v10.51z"/>
    <path fill="none" d="M0 0H24V24H0z"/>
</svg>
