<svg xmlns="http://www.w3.org/2000/svg" xmlns:xlink="http://www.w3.org/1999/xlink" width="24" height="24" viewBox="0 0 24 24">
  <path fill="#A0D276" fill-rule="evenodd" id="y2w0l8j03a" d="M23.955 16.621c0-.914-.587-1.693-1.403-1.983V7.381L24 6.803 11.984 2 0 6.803l5.673 2.273v3.337c0 1.03.721 1.957 2.03 2.611 1.156.578 2.676.896 4.282.896 1.605 0 3.126-.318 4.28-.896 1.31-.654 2.032-1.582 2.032-2.61V9.081l2.852-1.14v6.696c-.816.29-1.403 1.07-1.403 1.983 0 .837.491 1.56 1.2 1.9l-1.164 3.49 1.331.443.737-2.212.738 2.212 1.33-.444-1.163-3.49c.709-.338 1.2-1.062 1.2-1.899zm-7.06-4.208c0 .994-2.1 2.104-4.91 2.104s-4.91-1.11-4.91-2.104V9.638l4.91 1.967 4.91-1.962v2.77zm-4.91-2.319L3.771 6.803l8.214-3.292 8.236 3.292-8.236 3.291zm9.865 7.229c-.386 0-.7-.315-.7-.702 0-.386.314-.7.7-.7.387 0 .702.314.702.7 0 .387-.315.702-.702.702z"/>
  <path fill="none" d="M0 0H24V24H0z"/>
</svg>
