<svg xmlns="http://www.w3.org/2000/svg" xmlns:xlink="http://www.w3.org/1999/xlink" width="20" height="20" viewBox="0 0 20 20">
    <path fill="none" d="M0 0H19.2V19.2H0z" />
    <path fill="currentColor" d="M0.4 0.4L0.4 1 0.4 5.8 1.6 5.8 1.6 2.462 6.737 7.6 1.6 12.738 1.6 9.4 0.4 9.4 0.4 14.2 0.4 14.8 1 14.8 5.8 14.8 5.8 13.6 2.462 13.6 7.6 8.463 12.738 13.6 9.4 13.6 9.4 14.8 14.2 14.8 14.8 14.8 14.8 14.2 14.8 9.4 13.6 9.4 13.6 12.738 8.463 7.6 13.6 2.462 13.6 5.8 14.8 5.8 14.8 1 14.8 0.4 14.2 0.4 9.4 0.4 9.4 1.6 12.738 1.6 7.6 6.737 2.462 1.6 5.8 1.6 5.8 0.4 1 0.4z" transform="translate(2.2 2.4)" />
</svg>
