<svg xmlns="http://www.w3.org/2000/svg" xmlns:xlink="http://www.w3.org/1999/xlink" width="24" height="24" viewBox="0 0 24 24">
    <path fill="none" d="M0 0H24V24H0z" />
    <path fill="currentColor" transform="translate(1 3)" d="M6.125.75C3.022.75.5 3.303.5 6.375c0 1.071.487 2 .937 2.672.45.671.915 1.101.915 1.101l8.109 8.133.539.54.54-.54 8.108-8.133S21.5 8.518 21.5 6.375C21.5 3.303 18.978.75 15.875.75 13.301.75 11.641 2.3 11 2.953 10.359 2.3 8.7.75 6.125.75zm0 1.5c2.24 0 4.313 2.18 4.313 2.18l.562.632.563-.632s2.072-2.18 4.312-2.18C18.157 2.25 20 4.122 20 6.375c0 1.158-1.406 2.719-1.406 2.719L11 16.688 3.406 9.093s-.364-.35-.726-.89C2.317 7.661 2 6.953 2 6.374 2 4.122 3.843 2.25 6.125 2.25z"/>
</svg>
