<svg xmlns="http://www.w3.org/2000/svg" xmlns:xlink="http://www.w3.org/1999/xlink" width="24" height="24" viewBox="0 0 24 24">
    <path fill="currentColor" d="M12 2.25c-5.376 0-9.75 4.374-9.75 9.75s4.374 9.75 9.75 9.75 9.75-4.374 9.75-9.75S17.376 2.25 12 2.25zm0 1.5A8.239 8.239 0 0 1 20.25 12 8.239 8.239 0 0 1 12 20.25 8.239 8.239 0 0 1 3.75 12 8.239 8.239 0 0 1 12 3.75zm.54 3.445L11.46 8.25l3 3H6.75v1.5h7.71l-3 3 1.08 1.055 4.265-4.266.539-.539-.54-.54-4.265-4.265z"/>
    <path fill="none" d="M0 0h24v24H0z"/>
</svg>
