<svg version="1.1" xmlns="http://www.w3.org/2000/svg" xmlns:xlink="http://www.w3.org/1999/xlink" x="0px" y="0px" viewBox="0 0 1000 1000" enable-background="new 0 0 1000 1000" xml:space="preserve" width="24" height="24">
<g fill="currentColor" ><g><g><g><path d="M894.2,5.5H105.8c-52.4,0-95,42.6-95,95v105.8c0,52.4,42.6,95,95,95h788.3c52.4,0,95-42.6,95-95V100.5C989.2,48.1,946.6,5.5,894.2,5.5z M919.2,206.3c0,13.8-11.2,25-25,25H105.8c-13.8,0-25-11.2-25-25V100.5c0-13.8,11.2-25,25-25h788.3c13.8,0,25,11.2,25,25V206.3z"/><path d="M894.2,302.1H105.8c-52.8,0-95.8-43-95.8-95.8V100.5c0-52.8,43-95.8,95.8-95.8h788.3c52.8,0,95.8,43,95.8,95.8v105.8C990,259.2,947,302.1,894.2,302.1z M105.8,6.3c-51.9,0-94.2,42.3-94.2,94.2v105.8c0,51.9,42.3,94.2,94.2,94.2h788.3c51.9,0,94.2-42.3,94.2-94.2V100.5c0-51.9-42.3-94.2-94.2-94.2H105.8z M894.2,232.1H105.8c-14.2,0-25.8-11.6-25.8-25.8V100.5c0-14.2,11.6-25.8,25.8-25.8h788.3c14.2,0,25.8,11.6,25.8,25.8v105.8C920,220.6,908.4,232.1,894.2,232.1z M105.8,76.3c-13.3,0-24.2,10.9-24.2,24.2v105.8c0,13.3,10.9,24.2,24.2,24.2h788.3c13.3,0,24.2-10.9,24.2-24.2V100.5c0-13.3-10.8-24.2-24.2-24.2H105.8z"/></g><g><path d="M894.2,352.1H105.8c-52.4,0-95,42.6-95,95v105.8c0,52.4,42.6,95,95,95h788.3c52.4,0,95-42.6,95-95V447.1C989.2,394.7,946.6,352.1,894.2,352.1z M919.2,552.9c0,13.8-11.2,25-25,25H105.8c-13.8,0-25-11.2-25-25V447.1c0-13.8,11.2-25,25-25h788.3c13.8,0,25,11.2,25,25V552.9z"/><path d="M894.2,648.7H105.8c-52.8,0-95.8-43-95.8-95.8V447.1c0-52.8,43-95.8,95.8-95.8h788.3c52.8,0,95.8,43,95.8,95.8v105.8C990,605.8,947,648.7,894.2,648.7z M105.8,352.9c-51.9,0-94.2,42.3-94.2,94.2v105.8c0,51.9,42.3,94.2,94.2,94.2h788.3c51.9,0,94.2-42.3,94.2-94.2V447.1c0-51.9-42.3-94.2-94.2-94.2H105.8L105.8,352.9z M894.2,578.7H105.8c-14.2,0-25.8-11.6-25.8-25.8V447.1c0-14.2,11.6-25.8,25.8-25.8h788.3c14.2,0,25.8,11.6,25.8,25.8v105.8C920,567.1,908.4,578.7,894.2,578.7z M105.8,422.9c-13.3,0-24.2,10.9-24.2,24.2v105.8c0,13.3,10.9,24.2,24.2,24.2h788.3c13.3,0,24.2-10.9,24.2-24.2V447.1c0-13.3-10.8-24.2-24.2-24.2H105.8z"/></g><g><path d="M894.2,698.7H105.8c-52.4,0-95,42.6-95,95v105.8c0,52.4,42.6,95,95,95h788.3c52.4,0,95-42.6,95-95V793.7C989.2,741.3,946.6,698.7,894.2,698.7z M919.2,899.5c0,13.8-11.2,25-25,25H105.8c-13.8,0-25-11.2-25-25V793.7c0-13.8,11.2-25,25-25h788.3c13.8,0,25,11.2,25,25V899.5z"/><path d="M894.2,995.3H105.8c-52.8,0-95.8-43-95.8-95.8V793.7c0-52.8,43-95.8,95.8-95.8h788.3c52.8,0,95.8,43,95.8,95.8v105.8C990,952.3,947,995.3,894.2,995.3z M105.8,699.5c-51.9,0-94.2,42.3-94.2,94.2v105.8c0,51.9,42.3,94.2,94.2,94.2h788.3c51.9,0,94.2-42.3,94.2-94.2V793.7c0-51.9-42.3-94.2-94.2-94.2H105.8z M894.2,925.3H105.8c-14.2,0-25.8-11.6-25.8-25.8V793.7c0-14.2,11.6-25.8,25.8-25.8h788.3c14.2,0,25.8,11.6,25.8,25.8v105.8C920,913.7,908.4,925.3,894.2,925.3z M105.8,769.5c-13.3,0-24.2,10.9-24.2,24.2v105.8c0,13.3,10.9,24.2,24.2,24.2h788.3c13.3,0,24.2-10.8,24.2-24.2V793.7c0-13.3-10.8-24.2-24.2-24.2H105.8L105.8,769.5z"/></g></g></g><g></g><g></g><g></g><g></g><g></g><g></g><g></g><g></g><g></g><g></g><g></g><g></g><g></g><g></g><g></g></g>
</svg>