<svg width="24" height="24" viewBox="0 0 24 24">
    <path fill="currentColor" transform="translate(2 3)" d="M10 .75c-.969 0-1.796.633-2.11 1.5H2.5v1.5h1.055l-.211.375-3 5.25-.094.188v.187c0 2.062 1.688 3.75 3.75 3.75 2.062 0 3.75-1.688 3.75-3.75v-.188l-.094-.187-3-5.25-.21-.375H7.89c.229.633.727 1.131 1.359 1.36V15h-3v1.5h7.5V15h-3V5.11c.63-.229 1.131-.73 1.36-1.36h3.445l-.211.375-3 5.25-.094.188v.187c0 2.062 1.688 3.75 3.75 3.75 2.062 0 3.75-1.688 3.75-3.75v-.188l-.094-.187-3-5.25-.21-.375H17.5v-1.5h-5.39c-.314-.867-1.141-1.5-2.11-1.5zm0 1.5c.423 0 .75.327.75.75s-.327.75-.75.75-.75-.327-.75-.75.327-.75.75-.75zM4 6.023L5.71 9H2.29L4 6.023zm12 0L17.71 9h-3.42L16 6.023zM1.937 10.5h4.125C5.761 11.37 4.98 12 4 12c-.98 0-1.761-.63-2.063-1.5zm12 0h4.126C17.76 11.37 16.98 12 16 12c-.98 0-1.761-.63-2.063-1.5z"/>
    <path fill="none" d="M0 0H24V24H0z"/>
</svg>
