<svg xmlns="http://www.w3.org/2000/svg" width="24" height="24" viewBox="0 0 24 24">
    <path fill="currentColor" transform="translate(8.135 6)" d="M2.777 10.777h2.34V13h-2.34v-2.223zM0 4.339c0-.652.096-1.245.288-1.778.192-.534.472-.99.839-1.37.366-.379.809-.672 1.327-.88C2.972.104 3.552 0 4.192 0c.536 0 1.034.08 1.494.24.46.16.861.391 1.205.694.343.302.614.678.812 1.129.198.45.297.96.297 1.53 0 .414-.044.773-.131 1.075-.087.303-.204.563-.35.783-.145.22-.31.415-.497.587-.186.172-.373.34-.56.506-.22.19-.424.374-.61.552-.187.178-.35.376-.49.596-.14.219-.247.477-.323.773-.075.297-.113.658-.113 1.085H3.039c0-.522.027-.963.079-1.325.052-.362.137-.679.253-.951.117-.273.26-.513.428-.72.169-.208.37-.413.603-.614.186-.166.364-.32.532-.463.17-.142.32-.299.455-.47.134-.173.238-.365.314-.579.076-.213.114-.468.114-.765 0-.355-.062-.66-.184-.915s-.27-.46-.445-.614c-.175-.154-.361-.267-.56-.338-.197-.071-.372-.107-.523-.107-.722 0-1.255.24-1.598.72-.344.48-.516 1.124-.516 1.93H0z"/>
</svg>
