<svg xmlns="http://www.w3.org/2000/svg" xmlns:xlink="http://www.w3.org/1999/xlink" width="24" height="24" viewBox="0 0 24 24">
  <path fill="none" d="M0 0H24V24H0z"/>
  <path fill="currentColor" transform="translate(3 3)" d="M18 .352L16.945.82l-4.968 2.133L6.257.797l-.28-.094-.282.117-5.25 2.25L0 3.258v14.39l1.055-.468 4.968-2.133 5.72 2.156.28.094.282-.117 5.25-2.25.445-.188V.352zM6.75 2.578l4.5 1.688v11.156l-4.5-1.688V2.578zm-1.5.047v11.133L1.5 15.375V4.242l3.75-1.617zm11.25 0v11.133l-3.75 1.617V4.242l3.75-1.617z"/>
</svg>
