<svg width="24" height="24" viewBox="0 0 24 24">
    <path fill="currentColor" transform="translate(0 3)" d="M23.687 6.178L15.655.121c-.214-.161-.51-.161-.723 0l-1.32.996-1.32-.996c-.215-.161-.51-.161-.723 0l-1.288.97-1.288-.97c-.213-.161-.508-.161-.722 0L.239 6.178c-.15.113-.239.29-.239.48v10.197c0 .332.269.6.6.6h22.726c.33 0 .6-.268.6-.6V6.657c0-.188-.089-.366-.24-.479zm-.961 10.077h-2.164V6.657c0-.188-.088-.366-.238-.479l-5.716-4.31.685-.517 7.433 5.605v9.3zm-5.461 0V6.657c0-.188-.089-.366-.24-.479l-5.747-4.335.652-.491 7.432 5.604v9.3h-2.097zm-7.65 0H7.65v-4.35h1.965v4.35zm1.2 0v-4.95c0-.332-.269-.6-.6-.6H7.05c-.332 0-.6.268-.6.6v4.95H1.2V6.956l7.432-5.605 7.433 5.605v9.3h-5.25z"/>
    <path fill="none" d="M0 0H24V24H0z" />    
</svg>
