<svg width="24" height="24" viewBox="0 0 24 24">
    <path fill="currentColor" d="M22.374 10.45l-9.61-7.248c-.257-.193-.61-.193-.865 0L2.287 10.45c-.18.136-.285.348-.285.573v12.203c0 .396.321.718.717.718h19.223c.397 0 .718-.322.718-.718V11.023c0-.225-.106-.437-.286-.573zM12.331 4.675l8.893 6.706v11.127H3.437V11.38l8.894-6.706zM7.487 14.97H5.51V19h.823v-1.58h.87c.248 0 .417.042.507.128.075.071.12.202.135.393l.006.121.005.375c.002.118.014.234.036.347.007.036.018.08.032.132l.023.084h.927v-.101c-.08-.05-.132-.126-.154-.23-.011-.052-.018-.143-.02-.271l-.001-.374c0-.283-.04-.493-.117-.63-.077-.138-.209-.244-.395-.319.223-.077.382-.207.479-.392.096-.185.145-.374.145-.565 0-.159-.026-.3-.077-.424-.05-.124-.12-.237-.208-.339-.105-.124-.234-.218-.387-.282-.121-.05-.285-.083-.49-.097l-.162-.006zm4.935 0H9.467V19h3.054v-.725H10.29V17.24h1.957v-.7H10.29v-.856h2.132v-.713zm1.531 0h-.883V19h.785v-2.863L15.5 19h.842v-4.03h-.785v2.813l-1.605-2.813zm6.01 0h-3.265v.713h1.212V19h.847v-3.317h1.206v-.713zm-12.65.7c.182 0 .318.023.41.07.162.084.243.249.243.493 0 .226-.084.377-.252.454-.095.043-.237.065-.426.065h-.955V15.67h.98zM11.898.145c.255-.193.608-.193.864 0l9.611 7.248c.317.238.38.689.141 1.005-.14.187-.356.286-.573.286-.15 0-.303-.047-.432-.145l-9.18-6.922L3.153 8.54c-.317.239-.767.176-1.006-.141-.238-.317-.175-.767.141-1.005z"/>
    <path fill="none" d="M0 0H24V24H0z" />    
</svg>
