<svg xmlns="http://www.w3.org/2000/svg" xmlns:xlink="http://www.w3.org/1999/xlink" width="24" height="24" viewBox="0 0 24 24">
    <path d="M0 0H24V24H0z" fill="none" />
    <path fill="currentColor" transform="translate(3 2)" d="M3.034 7.488v1.498H1.536v9.479h14.977v-9.48h-1.498V7.489h2.247c.413 0 .748.335.748.749v10.976c0 .414-.335.75-.748.75H.788c-.414 0-.75-.336-.75-.75V8.237c0-.414.336-.749.75-.749h2.246zM9.024 0l5.023 5.022-1.059 1.06-3.215-3.215v10.612H8.276V2.867L5.06 6.08 4.002 5.022 9.025 0z"/>
</svg>
