<svg xmlns="http://www.w3.org/2000/svg" width="1074" height="824" viewBox="0 0 1074 824">
    <defs>
        <linearGradient id="estimate-graph-a" x1="49.598%" x2="49.598%" y1="118.836%" y2="11.873%">
            <stop offset="0%" stop-color="#FFF"/>
            <stop offset="58.464%" stop-color="#E9E8F2"/>
            <stop offset="100%" stop-color="#7B7B7B"/>
        </linearGradient>
        <linearGradient id="estimate-graph-b" x1="49.598%" x2="49.598%" y1="1.971%" y2="97.281%">
            <stop offset="0%" stop-color="#465FF5"/>
            <stop offset="100%" stop-color="#A590FF"/>
        </linearGradient>
        <linearGradient id="estimate-graph-c" x1="100%" x2="0%" y1="50%" y2="50%">
            <stop offset="0%" stop-color="#FFF" stop-opacity="0"/>
            <stop offset="100%" stop-color="#FFF"/>
        </linearGradient>
    </defs>
    <g fill="none" fill-rule="evenodd" opacity=".5" transform="rotate(0 180 0)">
        <path stroke="#595959" stroke-dasharray="10,6" stroke-linecap="square" d="M366.5 714.624V201.5M613.5 714.624V63.5M861.5 714.624V.688"/>
        <path fill="url(#estimate-graph-a)" fill-opacity=".2" d="M0 498.733c12.233 12.953 36.89 19.43 73.972 19.43 55.622 0 67.067-93.933 89.264-93.933 22.198 0 32.5-63.83 53.103-63.83 20.604 0 41.393 92.549 92.572 92.549 51.18 0 41.851-73.637 82.81-73.637 40.957 0 45.078 44.918 82.165 44.918 37.086 0 50.986-225.083 63.847-225.083 12.861 0 30.077-18.16 51.534 14.808 21.456 32.968 37.448 42.797 51.509 42.797 14.06 0 41.964-18.297 83.823-37.993 41.86-19.696 31.357-62.713 56.282-62.713 24.926 0 29.344 48.391 51.47 48.391 14.75 0 21.195-7.611 19.335-22.835 10.2-4.064 18.368-4.064 24.504 0 9.203 6.097 15.81-93.108 40.398-93.108s17.787-17.689 28.045-17.689c10.257 0 21.36-17.183 32.221-17.183 10.861 0 20.833 34.872 39.674 34.872s18.435 67.552 44.158 67.552c25.722 0 22.281-25.044 35.432-25.044 13.151 0 11.022 73.435 24.64 73.435s30.234-175.547 70.319-175.547c40.084 0 12.76-28.89 41.794-28.89 29.035 0 17.176 35.982 25.69 35.982 5.678 0 10.132 5.88 13.365 17.64l9.626 142.644v592.392H0V498.733z" transform="translate(99 -38)"/>
        <path stroke="#858585" d="M99 694.254c12.233 12.954 36.89 19.43 73.972 19.43 55.622 0 67.067-93.933 89.264-93.933 22.198 0 32.5-63.83 53.103-63.83 20.604 0 41.393 92.549 92.572 92.549 51.18 0 41.851-73.637 82.81-73.637 40.957 0 45.078 44.918 82.165 44.918 37.086 0 50.986-108.323 63.847-108.323 12.861 0 30.077-18.16 51.534 14.808 21.456 32.968 37.448 42.797 51.509 42.797 14.06 0 41.964-135.057 83.823-154.753 41.86-19.696 31.357-62.713 56.282-62.713 24.926 0 29.344 48.392 51.47 48.392 14.75 0 21.195-7.612 19.335-22.836 10.2-4.064 18.368-4.064 24.504 0 9.203 6.097 15.81-93.108 40.398-93.108s17.787-17.689 28.045-17.689c10.257 0 21.36-17.183 32.221-17.183 10.861 0 20.833 34.872 39.674 34.872s18.435 67.552 44.158 67.552c25.722 0 22.281-25.044 35.432-25.044 13.151 0 11.022 73.436 24.64 73.436s30.234-175.548 70.319-175.548c40.084 0 12.76-28.89 41.794-28.89 29.035 0 17.176 35.982 25.69 35.982 5.678 0 10.132 5.88 13.365 17.64l9.626 142.644" opacity=".3"/>
        <path stroke="url(#estimate-graph-b)" stroke-width="3" d="M0 635.1c12.233 12.856 36.89 19.284 73.972 19.284 55.622 0 67.067-93.228 89.264-93.228 22.198 0 32.5-63.35 53.103-63.35 20.604 0 41.393 91.853 92.572 91.853 51.18 0 41.851-73.083 82.81-73.083 40.957 0 45.078 44.58 82.165 44.58 37.086 0 50.986-107.509 63.847-107.509 12.861 0 30.077-18.024 51.534 14.697 21.456 32.72 37.448 42.475 51.509 42.475 14.06 0 41.964-134.043 83.823-153.59 41.86-19.548 31.357-62.243 56.282-62.243 24.926 0 29.344 48.029 51.47 48.029 14.75 0 21.195-7.555 19.335-22.664 10.2-4.034 18.368-4.034 24.504 0 9.203 6.05 15.81-92.409 40.398-92.409s17.787-17.556 28.045-17.556c10.257 0 21.36-17.054 32.221-17.054 10.861 0 20.833 34.61 39.674 34.61s18.435 67.044 44.158 67.044c25.722 0 22.281-24.855 35.432-24.855 13.151 0 11.022 72.884 24.64 72.884s30.234-174.23 70.319-174.23c40.084 0 12.76-28.672 41.794-28.672 29.035 0 17.176 35.712 25.69 35.712 5.678 0 10.132 5.835 13.365 17.507l9.626 141.572" transform="translate(99 -38)"/>
        <path stroke="#858585" d="M99 460.88c12.233 12.855 36.89 19.283 73.972 19.283 55.622 0 67.067-93.227 89.264-93.227 22.198 0 32.5-63.352 53.103-63.352 20.604 0 41.393 91.855 92.572 91.855 51.18 0 41.851-73.084 82.81-73.084 40.957 0 45.078 44.58 82.165 44.58 37.086 0 50.986-224.27 63.847-224.27 12.861 0 30.077-18.023 51.534 14.698 21.456 32.72 37.448 42.475 51.509 42.475 4.28 0 9.842-1.601 16.69-4.38 15.65-6.35 38.015-18.853 67.133-32.45 41.86-19.548 31.357-62.242 56.282-62.242 24.926 0 29.344 48.028 51.47 48.028 14.75 0 21.195-7.555 19.335-22.664 10.2-4.034 18.368-4.034 24.504 0 9.203 6.05 15.81-92.409 40.398-92.409s17.787-17.556 28.045-17.556c10.257 0 21.36-17.054 32.221-17.054 10.861 0 20.833 34.61 39.674 34.61s18.435 67.045 44.158 67.045c25.722 0 22.281-24.856 35.432-24.856 13.151 0 11.022 72.884 24.64 72.884s30.234-174.23 70.319-174.23c40.084 0 12.76-28.672 41.794-28.672 29.035 0 17.176 35.712 25.69 35.712 5.678 0 10.132 5.836 13.365 17.507l9.626 141.573" opacity=".3"/>
        <path fill="url(#estimate-graph-c)" d="M0 226h454v636H0z" transform="translate(0 -38)"/>
    </g>
</svg>
