<svg xmlns="http://www.w3.org/2000/svg" xmlns:xlink="http://www.w3.org/1999/xlink" width="38" height="38" viewBox="0 0 38 38">
    <g fill="none" fill-rule="evenodd" transform="translate(0 6)">
        <g fill="#000">
            <path d="M30.72 20.309c2.276 0 3.45.826 4.487 1.554.91.64 1.629 1.146 3.193 1.146v2.25c-2.276 0-3.45-.826-4.487-1.555-.91-.64-1.629-1.145-3.193-1.145s-2.283.505-3.193 1.145c-1.037.729-2.212 1.555-4.488 1.555-2.275 0-3.45-.826-4.486-1.555-.91-.64-1.63-1.145-3.194-1.145-1.563 0-2.282.505-3.192 1.145-1.037.729-2.211 1.555-4.487 1.555-2.276 0-3.45-.826-4.487-1.555-.91-.64-1.629-1.145-3.193-1.145v-2.25c2.276 0 3.45.826 4.487 1.554.91.64 1.629 1.146 3.193 1.146s2.283-.506 3.193-1.146c1.036-.728 2.21-1.554 4.486-1.554 2.277 0 3.451.826 4.488 1.554.91.64 1.628 1.146 3.192 1.146 1.565 0 2.283-.506 3.194-1.146 1.036-.728 2.21-1.554 4.487-1.554zm0-6.636c2.276 0 3.45.826 4.487 1.554.856.602 1.544 1.086 2.926 1.14l.267.006v2.25c-2.276 0-3.45-.827-4.487-1.555-.91-.64-1.629-1.145-3.193-1.145s-2.283.505-3.193 1.145c-1.037.728-2.212 1.555-4.488 1.555-2.275 0-3.45-.827-4.486-1.555-.91-.64-1.63-1.145-3.194-1.145-1.563 0-2.282.505-3.192 1.145-1.037.728-2.211 1.555-4.487 1.555-2.276 0-3.45-.827-4.487-1.555-.857-.602-1.544-1.085-2.926-1.14L0 15.923v-2.25c2.276 0 3.45.826 4.487 1.554.91.64 1.629 1.146 3.193 1.146s2.283-.506 3.193-1.146c1.036-.728 2.21-1.554 4.486-1.554 2.277 0 3.451.826 4.488 1.554.91.64 1.628 1.146 3.192 1.146 1.565 0 2.283-.506 3.194-1.146 1.036-.728 2.21-1.554 4.487-1.554zm0-6.637c2.276 0 3.45.826 4.487 1.555.856.602 1.544 1.085 2.926 1.14l.267.005v2.25c-2.276 0-3.45-.826-4.487-1.554-.91-.64-1.629-1.146-3.193-1.146s-2.283.506-3.193 1.146c-1.037.728-2.212 1.554-4.488 1.554-2.275 0-3.45-.826-4.486-1.554-.91-.64-1.63-1.146-3.194-1.146-1.563 0-2.282.506-3.192 1.146-1.037.728-2.211 1.554-4.487 1.554-2.276 0-3.45-.826-4.487-1.554-.857-.603-1.544-1.086-2.926-1.14L0 9.285v-2.25c2.276 0 3.45.826 4.487 1.555.91.64 1.629 1.145 3.193 1.145s2.283-.505 3.193-1.145c1.036-.729 2.21-1.555 4.486-1.555 2.277 0 3.451.826 4.488 1.555.91.64 1.628 1.145 3.192 1.145 1.565 0 2.283-.505 3.194-1.145 1.036-.729 2.21-1.555 4.487-1.555zm0-6.636c2.276 0 3.45.826 4.487 1.555.856.602 1.544 1.085 2.926 1.14l.267.005v2.25c-2.276 0-3.45-.826-4.487-1.555-.91-.64-1.629-1.145-3.193-1.145s-2.283.505-3.193 1.145c-1.037.73-2.212 1.555-4.488 1.555-2.275 0-3.45-.826-4.486-1.555-.91-.64-1.63-1.145-3.194-1.145-1.563 0-2.282.505-3.192 1.145-1.037.73-2.211 1.555-4.487 1.555-2.276 0-3.45-.826-4.487-1.555-.857-.602-1.544-1.085-2.926-1.14L0 2.65V.4c2.276 0 3.45.826 4.487 1.555.91.64 1.629 1.145 3.193 1.145s2.283-.505 3.193-1.145C11.909 1.225 13.083.4 15.359.4c2.277 0 3.451.826 4.488 1.555.91.64 1.628 1.145 3.192 1.145 1.565 0 2.283-.505 3.194-1.145C27.269 1.225 28.443.4 30.72.4z"/>
        </g>
    </g>
</svg>
