<?xml version="1.0" encoding="UTF-8"?>
<svg width="89px" height="24px" viewBox="0 0 89 24" version="1.1" xmlns="http://www.w3.org/2000/svg" xmlns:xlink="http://www.w3.org/1999/xlink">
    <!-- Generator: Sketch 55.1 (78136) - https://sketchapp.com -->
    <title>Elements/Logo</title>
    <desc>Created with Sketch.</desc>
    <defs>
        <linearGradient x1="49.5982021%" y1="98.0286946%" x2="49.5982021%" y2="1.97130544%" id="linearGradient-1">
            <stop stop-color="#465FF5" offset="0%"></stop>
            <stop stop-color="#6E4EF6" offset="100%"></stop>
        </linearGradient>
    </defs>
    <g id="Elements/Logo" stroke="none" stroke-width="1" fill="none" fill-rule="evenodd">
        <path d="M5.62794118,3.37745455 L-6.39488462e-14,3.37745455 L-6.39488462e-14,0 L15.1823529,0 L15.1823529,3.37745455 L9.55441176,3.37745455 L9.55441176,18.6938182 L5.62794118,18.6938182 L5.62794118,3.37745455 Z M19.5145588,19.1127273 C17.3157243,19.1127273 15.6142707,18.4843699 14.4101471,17.2276364 C13.2060234,15.9709028 12.6039706,14.1731026 12.6039706,11.8341818 C12.6039706,10.7170853 12.7653905,9.7090954 13.0882353,8.81018182 C13.41108,7.91126823 13.8735264,7.1520031 14.4755882,6.53236364 C15.0776501,5.91272417 15.8062212,5.43709257 16.6613235,5.10545455 C17.5164258,4.77381652 18.4674948,4.608 19.5145588,4.608 C20.5790739,4.608 21.5388683,4.77381652 22.3939706,5.10545455 C23.2490729,5.43709257 23.977644,5.91272417 24.5797059,6.53236364 C25.1817677,7.1520031 25.6398514,7.91126823 25.9539706,8.81018182 C26.2680898,9.7090954 26.4251471,10.7170853 26.4251471,11.8341818 C26.4251471,12.9687329 26.2637271,13.9854501 25.9408824,14.8843636 C25.6180376,15.7832772 25.1555912,16.5469059 24.5535294,17.1752727 C23.9514676,17.8036395 23.2228964,18.2836347 22.3677941,18.6152727 C21.5126918,18.9469107 20.5616229,19.1127273 19.5145588,19.1127273 Z M19.5145588,16.1803636 C20.5616229,16.1803636 21.3425464,15.8050947 21.8573529,15.0545455 C22.3721594,14.3039962 22.6295588,13.2305524 22.6295588,11.8341818 C22.6295588,10.4378112 22.3721594,9.37309457 21.8573529,8.64 C21.3425464,7.90690543 20.5616229,7.54036364 19.5145588,7.54036364 C18.4674948,7.54036364 17.6865712,7.90690543 17.1717647,8.64 C16.6569582,9.37309457 16.3995588,10.4378112 16.3995588,11.8341818 C16.3995588,13.2480071 16.6525955,14.3258145 17.1586765,15.0676364 C17.6647574,15.8094583 18.4500437,16.1803636 19.5145588,16.1803636 Z M28.2182353,5.02690909 L31.7782353,5.02690909 L31.7782353,6.83345455 C32.8252994,5.34981076 34.2562654,4.608 36.0711765,4.608 C37.9733428,4.608 39.3955835,5.25381172 40.3379412,6.54545455 C41.2802988,7.83709737 41.7514706,9.60871601 41.7514706,11.8603636 C41.7514706,12.9425509 41.6162268,13.9287228 41.3457353,14.8189091 C41.0752437,15.7090954 40.6826006,16.4727241 40.1677941,17.1098182 C39.6529876,17.7469123 39.0291213,18.2399983 38.2961765,18.5890909 C37.5632316,18.9381836 36.7343183,19.1127273 35.8094118,19.1127273 C35.1288201,19.1127273 34.4526014,18.9905467 33.7807353,18.7461818 C33.1088692,18.501817 32.4762775,18.0130946 31.8829412,17.28 L31.8829412,23.7730909 L28.2182353,23.7730909 L28.2182353,5.02690909 Z M31.8567647,11.9650909 C31.8567647,12.8552772 31.9309306,13.5665428 32.0792647,14.0989091 C32.2275988,14.6312754 32.4675474,15.0632711 32.7991176,15.3949091 C33.148139,15.7090925 33.5015178,15.9141813 33.8592647,16.0101818 C34.2170116,16.1061823 34.5791158,16.1541818 34.9455882,16.1541818 C35.3469628,16.1541818 35.7308805,16.0756371 36.0973529,15.9185455 C36.4638254,15.7614538 36.7823026,15.512729 37.0527941,15.1723636 C37.3232857,14.8319983 37.537058,14.3912754 37.6941176,13.8501818 C37.8511773,13.3090882 37.9297059,12.6545493 37.9297059,11.8865455 C37.9297059,11.0836323 37.85554,10.4116391 37.7072059,9.87054545 C37.5588718,9.32945184 37.3538248,8.88872897 37.0920588,8.54836364 C36.8302928,8.2079983 36.520541,7.96363711 36.1627941,7.81527273 C35.8050472,7.66690835 35.4254922,7.59272727 35.0241176,7.59272727 C34.5703899,7.59272727 34.1777468,7.65381757 33.8461765,7.776 C33.5146062,7.89818243 33.1917663,8.09018051 32.8776471,8.352 C32.5286257,8.68363802 32.2712263,9.10254292 32.1054412,9.60872727 C31.939656,10.1149116 31.8567647,10.7607233 31.8567647,11.5461818 L31.8567647,11.9650909 Z M43.8325,0 L47.7327941,0 L47.7327941,7.22618182 L55.1407353,7.22618182 L55.1407353,0 L59.0410294,0 L59.0410294,18.6938182 L55.1407353,18.6938182 L55.1407353,10.8392727 L47.7327941,10.8392727 L47.7327941,18.6938182 L43.8325,18.6938182 L43.8325,0 Z M69.7079412,16.9658182 C69.1669581,17.5767303 68.5605426,18.0741799 67.8886765,18.4581818 C67.2168104,18.8421837 66.3486328,19.0341818 65.2841176,19.0341818 C64.6733303,19.0341818 64.093091,18.9556371 63.5433824,18.7985455 C62.9936737,18.6414538 62.5137766,18.3970926 62.1036765,18.0654545 C61.6935764,17.7338165 61.3663738,17.310548 61.1220588,16.7956364 C60.8777439,16.2807247 60.7555882,15.6654581 60.7555882,14.9498182 C60.7555882,14.007268 60.9649979,13.2392757 61.3838235,12.6458182 C61.8026492,12.0523607 62.3523495,11.5898198 63.0329412,11.2581818 C63.7135328,10.9265438 64.4770056,10.6909098 65.3233824,10.5512727 C66.1697591,10.4116357 67.0292113,10.3243638 67.9017647,10.2894545 L69.6555882,10.2109091 L69.6555882,9.53018182 C69.6555882,8.69235945 69.4243651,8.11636521 68.9619118,7.80218182 C68.4994585,7.48799843 67.9541208,7.33090909 67.3258824,7.33090909 C65.8774437,7.33090909 65.0485305,7.88072177 64.8391176,8.98036364 L61.4885294,8.66618182 C61.7328444,7.23490193 62.3610734,6.20073046 63.3732353,5.56363636 C64.3853972,4.92654227 65.7465601,4.608 67.4567647,4.608 C68.5038288,4.608 69.3938199,4.73454419 70.1267647,4.98763636 C70.8597095,5.24072854 71.4486742,5.60290673 71.8936765,6.07418182 C72.3386787,6.5454569 72.6615186,7.11708755 72.8622059,7.78909091 C73.0628932,8.46109427 73.1632353,9.21599581 73.1632353,10.0538182 L73.1632353,18.6938182 L69.7079412,18.6938182 L69.7079412,16.9658182 Z M69.6294118,12.5934545 L68.0064706,12.672 C67.2386236,12.7069093 66.61912,12.7854539 66.1479412,12.9076364 C65.6767623,13.0298188 65.3146581,13.1825445 65.0616176,13.3658182 C64.8085772,13.5490918 64.6384318,13.7629079 64.5511765,14.0072727 C64.4639211,14.2516376 64.4202941,14.5221803 64.4202941,14.8189091 C64.4202941,15.2727295 64.5773514,15.6305441 64.8914706,15.8923636 C65.2055898,16.1541831 65.64186,16.2850909 66.2002941,16.2850909 C67.1426518,16.2850909 67.9104872,16.0669113 68.5038235,15.6305455 C68.8353938,15.3861806 69.1058813,15.0763655 69.3152941,14.7010909 C69.5247069,14.3258163 69.6294118,13.8589119 69.6294118,13.3003636 L69.6294118,12.5934545 Z M75.2966176,5.02690909 L78.8566176,5.02690909 L78.8566176,6.83345455 C79.9036817,5.34981076 81.3346478,4.608 83.1495588,4.608 C85.0517252,4.608 86.4739659,5.25381172 87.4163235,6.54545455 C88.3586812,7.83709737 88.8298529,9.60871601 88.8298529,11.8603636 C88.8298529,12.9425509 88.6946092,13.9287228 88.4241176,14.8189091 C88.1536261,15.7090954 87.760983,16.4727241 87.2461765,17.1098182 C86.73137,17.7469123 86.1075037,18.2399983 85.3745588,18.5890909 C84.641614,18.9381836 83.8127007,19.1127273 82.8877941,19.1127273 C82.2072025,19.1127273 81.5309838,18.9905467 80.8591176,18.7461818 C80.1872515,18.501817 79.5546598,18.0130946 78.9613235,17.28 L78.9613235,23.7730909 L75.2966176,23.7730909 L75.2966176,5.02690909 Z M78.9351471,11.9650909 L78.9351471,11.5461818 C78.9351471,10.7607233 79.0180384,10.1149116 79.1838235,9.60872727 C79.3496087,9.10254292 79.6070081,8.68363802 79.9560294,8.352 C80.2701486,8.09018051 80.5929885,7.89818243 80.9245588,7.776 C81.2561291,7.65381757 81.6487722,7.59272727 82.1025,7.59272727 C82.5038746,7.59272727 82.8834296,7.66690835 83.2411765,7.81527273 C83.5989234,7.96363711 83.9086752,8.2079983 84.1704412,8.54836364 C84.4322072,8.88872897 84.6372542,9.32945184 84.7855882,9.87054545 C84.9339223,10.4116391 85.0080882,11.0836323 85.0080882,11.8865455 C85.0080882,12.6545493 84.9295596,13.3090882 84.7725,13.8501818 C84.6154404,14.3912754 84.401668,14.8319983 84.1311765,15.1723636 C83.8606849,15.512729 83.5422077,15.7614538 83.1757353,15.9185455 C82.8092629,16.0756371 82.4253451,16.1541818 82.0239706,16.1541818 C81.6574982,16.1541818 81.2953939,16.1061823 80.9376471,16.0101818 C80.5799002,15.9141813 80.2265214,15.7090925 79.8775,15.3949091 C79.5459297,15.0632711 79.3059811,14.6312754 79.1576471,14.0989091 C79.009313,13.5665428 78.9351471,12.8552772 78.9351471,11.9650909 Z M5.62794384,3.37745188 L9.55441443,3.37745188 L5.62794384,6.86836097 L5.62794384,3.37745188 Z" fill="url(#linearGradient-1)"></path>
    </g>
</svg>